<svg width="0" height="0" class="hidden">
  <symbol xmlns="http://www.w3.org/2000/svg" viewBox="0 0 19 19" id="search">
    <path fill-rule="evenodd" clip-rule="evenodd" d="M17.9 16.486l-3.58-3.58a8 8 0 10-1.415 1.413l3.58 3.58a1 1 0 101.416-1.413zM13.198 11A6 6 0 112.804 5a6 6 0 0110.393 6z"></path>
  </symbol>

  <symbol xmlns="http://www.w3.org/2000/svg" viewBox="0 0 27 20" id="video">
    <path fill-rule="evenodd" clip-rule="evenodd" d="M22.208 2.868L18.41 5.682v-3.18C18.41 1.119 17.31 0 15.955 0h-13.5C1.095 0 0 1.12 0 2.503v14.994C0 18.882 1.099 20 2.454 20h13.501c1.358 0 2.454-1.12 2.454-2.503v-3.179l3.8 2.814a2.19 2.19 0 001.111.368h2.45c.686 0 1.23-.561 1.23-1.253V3.753c0-.692-.551-1.253-1.23-1.253h-2.45a2.16 2.16 0 00-1.112.368zM2.455 17.5v-15h13.5v15h-13.5zm2.454-3.75c0-.69.55-1.25 1.231-1.25h6.13c.679 0 1.23.555 1.23 1.25 0 .69-.55 1.25-1.23 1.25H6.14c-.68 0-1.23-.555-1.23-1.25zM23.511 15l-5.087-3.762V8.762l5.083-3.765 1.038.001v10L23.512 15z"></path>
  </symbol>

  <symbol xmlns="http://www.w3.org/2000/svg" viewBox="0 0 21 21" id="apps">
    <path fill-rule="evenodd" clip-rule="evenodd" d="M0 2.5a2.5 2.5 0 105 0 2.5 2.5 0 00-5 0zM2.5 13a2.5 2.5 0 110-5 2.5 2.5 0 010 5zm0 8a2.5 2.5 0 110-5 2.5 2.5 0 010 5zm8 0a2.5 2.5 0 110-5 2.5 2.5 0 010 5zm5.5-2.5a2.5 2.5 0 105 0 2.5 2.5 0 00-5 0zM10.5 13a2.5 2.5 0 110-5 2.5 2.5 0 010 5zM8 2.5a2.5 2.5 0 105 0 2.5 2.5 0 00-5 0zM18.5 13a2.5 2.5 0 110-5 2.5 2.5 0 010 5zM16 2.5a2.5 2.5 0 105 0 2.5 2.5 0 00-5 0z"></path>
  </symbol>

  <symbol xmlns="http://www.w3.org/2000/svg" viewBox="0 0 22 26" id="notification">
    <path fill-rule="evenodd" clip-rule="evenodd" d="M3.67 22.454C1.643 22.454 0 20.866 0 18.91c0-1.298.727-2.456 1.838-3.074l-.005-4.61c0-4.083 2.836-7.521 6.723-8.548v-.313C8.556 1.058 9.65 0 11 0c1.35 0 2.444 1.058 2.444 2.364v.313c3.888 1.026 6.723 4.465 6.723 8.555v4.613C21.279 16.466 22 17.62 22 18.91c0 1.96-1.641 3.546-3.67 3.546h-3.663C14.665 24.412 13.02 26 11 26c-2.025 0-3.667-1.586-3.667-3.543l-3.664-.003zm6.108 0c0 .654.546 1.182 1.222 1.182.67 0 1.22-.53 1.222-1.181H9.778zm7.944-11.222v5.71c0 .328.27.661.596.743l.32.08c.535.133.918.604.918 1.144 0 .653-.547 1.182-1.225 1.182H3.669c-.675 0-1.225-.531-1.225-1.182 0-.542.381-1.011.916-1.144l.332-.083a.803.803 0 00.586-.74v-5.716c0-3.59 3.009-6.499 6.722-6.499 3.715 0 6.722 2.908 6.722 6.505z"></path>
  </symbol>

  <symbol xmlns="http://www.w3.org/2000/svg" viewBox="0 0 19 18" id="favourites">
    <path fill-rule="evenodd" clip-rule="evenodd" d="M15.588 16.178c.217 1.256-.876 2.046-2.009 1.453 0 0-4.253-2.203-4.211-2.225l-4.25 2.225c-1.134.594-2.225-.198-2.01-1.453 0 0 .791-4.71.824-4.677L.494 8.163c-.917-.89-.499-2.169.767-2.352 0 0 4.742-.707 4.721-.665L8.107.857c.567-1.143 1.917-1.142 2.483 0 0 0 2.14 4.273 2.094 4.266l4.752.688c1.267.183 1.683 1.462.767 2.352 0 0-3.419 3.347-3.426 3.301l.811 4.714zm-10.492-.62l3.41-1.786a1.91 1.91 0 011.686 0l3.417 1.789-.66-3.785a1.895 1.895 0 01.522-1.597l2.753-2.673-3.806-.556a1.907 1.907 0 01-1.365-.987L9.35 2.526 7.644 5.963c-.25.503-.808.907-1.364.987l-3.811.552 2.757 2.677c.404.392.617 1.045.522 1.597l-.652 3.781z"></path>
  </symbol>

  <symbol xmlns="http://www.w3.org/2000/svg" viewBox="0 0 20 20" id="home">
    <path fill-rule="evenodd" clip-rule="evenodd" d="M1.552 11.15a.88.88 0 01-1.286 0 .985.985 0 010-1.347L9.357.279a.88.88 0 011.286 0l9.09 9.524a.985.985 0 010 1.347.88.88 0 01-1.285 0l-.266-.28v7.23c0 1.05-.813 1.9-1.82 1.9H3.638c-1.004 0-1.819-.85-1.819-1.9v-7.23l-.266.28zm2.085 6.945h2.727V12.38c0-.525.406-.95.906-.95h5.46c.5 0 .906.425.906.95v5.719l2.728.002V8.967L10 2.307l-6.364 6.66.001 9.128zm8.181-4.763v4.765H8.182v-4.764l3.636-.001z"></path>
  </symbol>

  <symbol xmlns="http://www.w3.org/2000/svg" viewBox="0 0 20 20" id="trending">
    <path fill-rule="evenodd" clip-rule="evenodd" d="M15.615 6.85C17.132 8.096 18 9.625 18 11.72c0 4.368-3.587 7.807-7.989 7.807C5.606 19.527 2 16.085 2 11.72c0-2.404.548-3.89 2.155-6.359.509-.781 1.744-.497 1.84.424.085.827.35 1.531.734 2.071C6.472 4.94 7.804 1.659 11.086.101c.76-.361 1.608.303 1.41 1.104-.512 2.076.016 3.192 1.396 4.395.034.03.206.15.433.31.412.29 1.006.706 1.29.94zM4.621 8.569C4.339 9.193 4 9.943 4 11.72c0 3.279 2.701 5.857 6.011 5.857 3.305 0 5.989-2.574 5.989-5.857 0-1.465-.575-2.479-1.674-3.381-.174-.143-.58-.43-.963-.701a17.166 17.166 0 01-.804-.586c-1.325-1.155-2.135-2.385-2.245-4.025-.67.636-2.21 2.615-1.342 6.53.135.608-.34 1.181-.977 1.181-1.265 0-2.515-.942-3.279-2.385l-.095.215z"></path>
  </symbol>

  <symbol xmlns="http://www.w3.org/2000/svg" viewBox="0 0 18 18" id="subscriptions">
    <path fill-rule="evenodd" clip-rule="evenodd" d="M3.906 1A1 1 0 014.9 0h8.01a1 1 0 010 2H4.9a.995.995 0 01-.995-1zM.01 8.095l.801 8.01A2.123 2.123 0 002.901 18H14.91A2.129 2.129 0 0017 16.104l.801-8.01A1.885 1.885 0 0015.905 6H1.906C.76 6-.104 6.956.01 8.095zm2.001-.09l13.789.003L14.906 16h-12L2.01 8.004zM2.901 3a1 1 0 000 2H14.91a1 1 0 000-2H2.901z"></path>
  </symbol>



  <symbol xmlns="http://www.w3.org/2000/svg" viewBox="0 0 20 20" id="library">
    <path fill-rule="evenodd" clip-rule="evenodd" d="M1.814 2C.818 2 0 2.794 0 3.773v12.454C0 17.207.814 18 1.819 18h16.362C19.185 18 20 17.204 20 16.223V6.444c0-.983-.816-1.777-1.822-1.777h-8.175L8.716 2.743C8.44 2.333 7.81 2 7.308 2H1.814zM18.18 16.222l-16.363.005-.004-12.45 5.459.005 1.21 1.858a1.83 1.83 0 001.52.804h8.179l-.001 9.778z"></path>
  </symbol>

  <symbol xmlns="http://www.w3.org/2000/svg" viewBox="0 0 20 20" id="history">
    <path fill-rule="evenodd" clip-rule="evenodd" d="M6.364 1C4.857 1 3.636 2.207 3.636 3.697V13.6H.91a.905.905 0 00-.909.9v1.8C0 17.791 1.224 19 2.727 19h10.91c1.505 0 2.727-1.206 2.727-2.695V6.4h2.727A.902.902 0 0020 5.502V3.704C20 2.211 18.78 1 17.273 1H6.363zM5.3 17.2c.1-.28.155-.583.155-.897V3.697c0-.495.406-.897.909-.897.5 0 .909.404.909.9v1.8c0 .497.403.9.909.9h6.364v9.905a.902.902 0 01-.91.895H5.3zm-3.482-1.8v.9c0 .496.409.9.91.9a.902.902 0 00.908-.897V15.4H1.818zM9.091 4.6v-.9c0-.316-.055-.619-.156-.9h8.338c.502 0 .909.404.909.904V4.6H9.09z"></path>
  </symbol>

  <symbol xmlns="http://www.w3.org/2000/svg" viewBox="0 0 20 20" id="watch-later">
    <path fill-rule="evenodd" clip-rule="evenodd" d="M14.475 16.968A8.939 8.939 0 0110 18.15a8.938 8.938 0 01-4.475-1.182l-.961 1.542c-.293.468-.936.63-1.446.358-.507-.271-.683-.867-.388-1.338 0 0 1.11-1.775 1.14-1.81-1.45-1.407-2.34-3.312-2.34-5.41 0-1.168.275-2.276.77-3.271C1.504 6.409 1 5.474 1 4.43 1 2.536 2.66 1 4.706 1c1.37 0 2.565.687 3.207 1.71A9.135 9.135 0 0110 2.47c.651 0 1.285.068 1.895.197C12.542 1.668 13.724 1 15.074 1c2.047 0 3.706 1.536 3.706 3.43 0 .975-.44 1.855-1.146 2.48a7.332 7.332 0 01.837 3.4c0 2.098-.89 4.003-2.34 5.41.029.035 1.14 1.81 1.14 1.81.294.471.118 1.067-.389 1.338-.51.272-1.153.11-1.446-.358l-.961-1.542zM8.94 6.39c0-.541.47-.98 1.059-.98.585 0 1.059.435 1.059.98v3.92c0 .541-.47.98-1.058.98H7.88c-.584 0-1.058-.435-1.058-.98 0-.541.47-.98 1.058-.98h1.06V6.39zM3.118 4.43c0-.812.71-1.47 1.588-1.47.465 0 .892.187 1.186.492a8.392 8.392 0 00-2.438 1.883 1.401 1.401 0 01-.336-.905zm13.544 0c0-.812-.71-1.47-1.588-1.47a1.65 1.65 0 00-1.111.42 8.428 8.428 0 012.463 1.822c.15-.226.236-.492.236-.772zM10 16.19c-3.509 0-6.353-2.632-6.353-5.88 0-3.247 2.844-5.88 6.353-5.88 3.508 0 6.353 2.633 6.353 5.88 0 3.248-2.845 5.88-6.353 5.88z"></path>
  </symbol>

  <symbol xmlns="http://www.w3.org/2000/svg" viewBox="0 0 19 18" id="favourites">
    <path fill-rule="evenodd" clip-rule="evenodd" d="M15.588 16.178c.217 1.256-.876 2.046-2.009 1.453 0 0-4.253-2.203-4.211-2.225l-4.25 2.225c-1.134.594-2.225-.198-2.01-1.453 0 0 .791-4.71.824-4.677L.494 8.163c-.917-.89-.499-2.169.767-2.352 0 0 4.742-.707 4.721-.665L8.107.857c.567-1.143 1.917-1.142 2.483 0 0 0 2.14 4.273 2.094 4.266l4.752.688c1.267.183 1.683 1.462.767 2.352 0 0-3.419 3.347-3.426 3.301l.811 4.714zm-10.492-.62l3.41-1.786a1.91 1.91 0 011.686 0l3.417 1.789-.66-3.785a1.895 1.895 0 01.522-1.597l2.753-2.673-3.806-.556a1.907 1.907 0 01-1.365-.987L9.35 2.526 7.644 5.963c-.25.503-.808.907-1.364.987l-3.811.552 2.757 2.677c.404.392.617 1.045.522 1.597l-.652 3.781z"></path>
  </symbol>

  <symbol xmlns="http://www.w3.org/2000/svg" viewBox="0 0 20 20" id="liked">
    <path fill-rule="evenodd" clip-rule="evenodd" d="M14 0a5.863 5.863 0 00-4 1.582A5.863 5.863 0 006 0C2.686 0 0 2.782 0 6.214c0 5.009 4.979 9.85 9.578 12.675.233.15.614.147.847-.002C14.994 16.053 20 11.223 20 6.214 20 2.782 17.314 0 14 0zm-3.994 16.57C5.06 13.25 2 9.37 2 6.161c0-2.269 1.79-4.108 4-4.108 1 0 1.937.375 2.666 1.046l.962.884a.556.556 0 00.743 0l.963-.884A3.919 3.919 0 0114 2.054c2.21 0 4 1.84 4 4.108 0 3.291-3.05 7.087-7.994 10.407z"></path>
  </symbol>

  <symbol xmlns="http://www.w3.org/2000/svg" viewBox="0 0 20 20" id="music">
    <path fill-rule="evenodd" clip-rule="evenodd" d="M15.85 17.273c1.74 0 3.15-1.425 3.15-3.182V.93a.9.9 0 00-1.106-.905L6.228 2.791c-.402.095-.677.449-.728.846v10.306a3.11 3.11 0 00-1.35-.306C2.41 13.637 1 15.06 1 16.818S2.41 20 4.15 20s3.15-1.424 3.15-3.182V8.041l9.9-2.348v5.523a3.112 3.112 0 00-1.35-.307c-1.74 0-3.15 1.425-3.15 3.182s1.41 3.182 3.15 3.182zM7.3 6.173V4.404l9.9-2.347v1.768L7.3 6.173zm9.9 7.918c0-.753-.604-1.364-1.35-1.364-.746 0-1.35.611-1.35 1.364 0 .753.604 1.364 1.35 1.364.746 0 1.35-.61 1.35-1.364zM4.15 15.455c.746 0 1.35.61 1.35 1.363s-.604 1.364-1.35 1.364c-.746 0-1.35-.61-1.35-1.364 0-.753.604-1.363 1.35-1.363z"></path>
  </symbol>

  <symbol xmlns="http://www.w3.org/2000/svg" viewBox="0 0 20 20" id="games">
    <path fill-rule="evenodd" clip-rule="evenodd" d="M11.73 2.476c-.723.261-1.032.332-1.73.332s-1.007-.07-1.73-.332l-.057-.02C7.299 2.124 6.757 2 5.859 2 3.682 2 1.684 4.075.857 6.604.223 8.545.054 9.788 0 12.49c.053 2.686 1.219 4.043 3.328 4.056 1.322-.007 2.229-.579 3.067-1.617.129-.16.484-.634.523-.685l.003-.004c.863-1.116 1.755-1.725 3.081-1.734 1.322.009 2.214.618 3.077 1.734l.003.004c.04.052.394.525.523.685.838 1.038 1.745 1.61 3.057 1.617 2.119-.013 3.285-1.37 3.338-4.024-.054-2.733-.223-3.976-.858-5.917C18.316 4.075 16.317 2 14.14 2c-.897 0-1.44.125-2.353.455l-.057.02zM7.687 3.99c.896.324 1.478.434 2.313.434.835 0 1.416-.11 2.312-.434l.057-.02c.744-.27 1.11-.354 1.771-.354 1.296 0 2.782 1.543 3.413 3.477.58 1.773.73 2.87.78 5.428-.036 1.808-.546 2.401-1.672 2.408-.703-.004-1.189-.31-1.744-.997-.092-.114-.353-.46-.46-.602l-.045-.06c-1.144-1.48-2.445-2.368-4.417-2.381-1.963.013-3.264.9-4.408 2.38l-.045.06c-.107.143-.368.489-.46.603-.555.687-1.04.993-1.754.997-1.115-.007-1.625-.6-1.662-2.44.051-2.527.2-3.623.78-5.396.632-1.934 2.118-3.477 3.413-3.477.66 0 1.028.085 1.771.354l.057.02zm6.48 3.263a.82.82 0 01-.834-.809.82.82 0 01.834-.808c.46 0 .833.362.833.808a.821.821 0 01-.833.809zm-.834 2.424a.82.82 0 00.834.808.82.82 0 00.833-.808.821.821 0 00-.833-.808.82.82 0 00-.834.808zm2.5-.808A.821.821 0 0115 8.06a.82.82 0 01.833-.808.82.82 0 01.833.808.821.821 0 01-.833.808zm-4.167-.808c0 .446.374.808.834.808.46 0 .833-.362.833-.808a.821.821 0 00-.833-.808.821.821 0 00-.834.808zm-5.833 2.424c-1.38 0-2.5-1.086-2.5-2.424 0-1.34 1.12-2.425 2.5-2.425 1.381 0 2.5 1.086 2.5 2.425 0 1.338-1.119 2.424-2.5 2.424zm.833-2.424a.821.821 0 01-.833.808A.821.821 0 015 8.06a.82.82 0 01.833-.808.82.82 0 01.833.808z"></path>
  </symbol>

  <symbol xmlns="http://www.w3.org/2000/svg" viewBox="0 0 20 20" id="arrow-down">
    <path d="M9.67 11.255l4.95-4.95a1 1 0 111.413 1.414l-5.657 5.657a1 1 0 01-1.414 0L3.305 7.72A1 1 0 114.72 6.305l4.95 4.95z"></path>
  </symbol>


  <symbol xmlns="http://www.w3.org/2000/svg" viewBox="0 0 20 20" id="settings">
    <path fill-rule="evenodd" clip-rule="evenodd" d="M14.177 3.73l-.782-.434s-.816-2.11-.885-2.254C12.25.447 11.538 0 10.824 0h-1.96c-.71 0-1.42.446-1.698 1.068-.057.118-.864 2.228-.864 2.228l-.773.436s-2.353-.39-2.518-.404c-.673-.084-1.436.279-1.793.866l-.98 1.612a1.737 1.737 0 00.125 1.931c.078.106 1.599 1.835 1.599 1.835s-.013.285-.013.428c0 .303.011.429.011.429S.442 12.157.346 12.285c-.414.512-.465 1.322-.108 1.909l.98 1.612c.355.585 1.116.945 1.822.863.136-.012 2.466-.402 2.466-.402l.785.425s.818 2.122.887 2.265c.26.596.972 1.043 1.686 1.043h1.96c.71 0 1.42-.446 1.698-1.068.057-.117.873-2.232.873-2.232l.77-.431 2.505.402c.68.085 1.443-.278 1.8-.865l.98-1.612a1.737 1.737 0 00-.124-1.931c-.079-.106-1.6-1.826-1.6-1.826s.013-.291.013-.437c0-.303-.01-.43-.01-.43s1.518-1.727 1.614-1.855c.413-.512.464-1.322.107-1.909l-.98-1.612c-.355-.585-1.116-.945-1.822-.863-.136.012-2.47.399-2.47.399zm-2.659.575l.142.45.454.183c.429.174.834.397 1.207.664l.395.282.481-.108c.699-.158 2.342-.42 2.5-.438.09-.01.878 1.286.823 1.356-.096.12-1.155 1.34-1.648 1.837l-.339.34.059.466a5.3 5.3 0 010 1.327l-.059.465.339.34c.493.496 1.552 1.717 1.648 1.838.055.07-.77 1.361-.824 1.355-.157-.019-1.8-.28-2.499-.438l-.481-.108-.395.282c-.373.267-.778.49-1.207.664l-.454.184-.142.449c-.205.653-.788 2.135-.85 2.273-.036.08-1.612.08-1.647 0-.063-.138-.645-1.62-.85-2.273l-.142-.45-.454-.183a5.864 5.864 0 01-1.208-.664l-.395-.282-.48.109c-.7.157-2.342.418-2.5.437-.091.01-.879-1.286-.824-1.356.096-.12 1.155-1.34 1.648-1.837l.339-.34-.059-.465a5.292 5.292 0 010-1.328l.059-.465-.339-.34c-.493-.496-1.552-1.717-1.648-1.838-.055-.07.733-1.365.824-1.355.158.018 1.8.28 2.5.438l.48.108.395-.282a5.86 5.86 0 011.208-.664l.454-.184.141-.449c.206-.653.788-2.135.85-2.273.036-.08 1.612-.08 1.648 0 .062.138.645 1.62.85 2.273zM9.844 13c-1.744 0-3.158-1.343-3.158-3S8.1 7 9.844 7s3.158 1.343 3.158 3-1.414 3-3.158 3zm1.053-3c0 .552-.472 1-1.053 1s-1.053-.448-1.053-1 .472-1 1.053-1 1.053.448 1.053 1z"></path>
  </symbol>

  <symbol xmlns="http://www.w3.org/2000/svg" viewBox="0 0 28 28" id="right-arrow">
    <path opacity=".24" d="M14 28c7.732 0 14-6.268 14-14S21.732 0 14 0 0 6.268 0 14s6.268 14 14 14z" fill="#000"></path>
    <path fill-rule="evenodd" clip-rule="evenodd" d="M11.998 8.666l-.534.54a.925.925 0 00-.264.653c0 .254.088.47.264.647L14.928 14l-3.464 3.494a.885.885 0 00-.264.647c0 .249.088.467.264.654l.534.532c.18.182.397.273.65.273a.84.84 0 00.64-.273l4.641-4.68A.858.858 0 0018.2 14a.896.896 0 00-.27-.654l-4.641-4.68a.87.87 0 00-.642-.266.91.91 0 00-.649.266z" fill="#fff"></path>
  </symbol>

  <symbol xmlns="http://www.w3.org/2000/svg" viewBox="0 0 28 28" id="left-arrow">
    <path opacity=".24" d="M14 28c7.732 0 14-6.268 14-14S21.732 0 14 0 0 6.268 0 14s6.268 14 14 14z" fill="#000"></path>
    <path fill-rule="evenodd" clip-rule="evenodd" d="M16.002 8.666l.534.54a.925.925 0 01.264.653c0 .254-.088.47-.264.647L13.072 14l3.464 3.494a.885.885 0 01.264.647.924.924 0 01-.264.654l-.534.532a.881.881 0 01-.65.273.844.844 0 01-.64-.273l-4.641-4.68A.858.858 0 019.8 14c0-.254.09-.472.27-.654l4.64-4.68a.87.87 0 01.642-.266.91.91 0 01.649.266z" fill="#fff"></path>
  </symbol>

</svg>
