<svg width="108" height="23" viewBox="0 0 108 23" fill="none" xmlns="http://www.w3.org/2000/svg">
<rect x="7.3938" y="3.67888" width="19.5517" height="15.64" fill="white"/>
<path fill-rule="evenodd" clip-rule="evenodd" d="M10.8138 22.8361L17.8125 22.9609C17.8237 22.9609 17.846 22.9609 17.846 22.9772C21.7434 23.0477 25.5407 22.8253 29.427 22.5486C32.5283 22.3371 33.2632 20.1456 33.6474 17.531C34.1262 14.3739 34.232 11.1788 33.9815 8.00005C33.9695 7.84997 33.9579 7.69853 33.9463 7.54615C33.7133 4.50424 33.4514 1.08476 29.7611 0.454534C28.976 0.318921 28.1742 0.199581 27.378 0.177883C19.8392 -0.0607959 12.2336 -0.120466 4.67809 0.38944C2.43983 0.530478 0.992197 1.82152 0.624722 3.9859C-0.0267121 7.84274 -0.16034 11.8026 0.184865 15.692C0.189173 15.7396 0.193478 15.7873 0.197796 15.8352C0.444578 18.5712 0.732946 21.7682 4.05449 22.4293C5.84271 22.7917 7.6634 22.8062 9.48753 22.8207C9.92956 22.8242 10.3718 22.8277 10.8138 22.8361ZM17.3839 14.2797C16.1604 14.9648 14.9342 15.6515 13.6979 16.343V6.58968C15.0292 7.33364 16.3511 8.0742 17.6744 8.81551C19.2456 9.69575 20.8187 10.577 22.4116 11.4663C20.7288 12.4068 19.059 13.3418 17.3839 14.2797Z" fill="#FF0000"/>
<path fill-rule="evenodd" clip-rule="evenodd" d="M90.0537 20.9271C90.1317 20.6366 90.2122 20.3369 90.2998 19.9883C90.3676 20.0802 90.4217 20.1558 90.4685 20.2212C90.5294 20.3062 90.578 20.3741 90.6283 20.4385C92.0815 22.2991 95.0102 21.9736 95.9066 19.8255C96.1794 19.1746 96.3966 18.464 96.43 17.7696C96.5135 15.4968 96.5469 13.2293 96.5024 10.9564C96.4801 10.0722 96.2963 9.16633 96.0124 8.3201C95.5725 6.95854 94.3309 6.33472 92.8777 6.61137C91.9646 6.79581 91.2575 7.27317 90.7118 8.00548C90.6794 8.04679 90.6447 8.08701 90.6013 8.13737L90.6011 8.13768L90.6009 8.13785L90.6009 8.13791L90.6008 8.13795L90.6005 8.13837L90.6001 8.13874C90.5469 8.20055 90.4804 8.27767 90.3889 8.39062V0.79628H87.193V21.3824H89.9323C89.9726 21.2293 90.0128 21.0794 90.0537 20.9271ZM90.4557 18.0897V14.3251V10.5604C90.4557 9.92576 90.7675 9.4484 91.2797 9.11208C91.959 8.67269 92.6494 8.8951 92.9 9.64911C93.0336 10.0668 93.1394 10.5116 93.1394 10.9401C93.1227 13.2456 93.067 15.5456 93.0058 17.8456C93.0002 18.0897 92.8944 18.3338 92.7886 18.567C92.5381 19.1258 92.037 19.359 91.4189 19.218C90.7898 19.0769 90.4557 18.7026 90.4557 18.0897ZM81.7699 6.9043H85.1162V21.3932H82.5049C82.4191 20.8967 82.3333 20.3867 82.2351 19.8029L82.2351 19.8027L82.235 19.8021L82.2042 19.6194C82.0882 19.7854 82.0029 19.9123 81.9268 20.0255L81.9267 20.0257C81.8859 20.0863 81.8477 20.1431 81.8089 20.1998C80.9403 21.4203 79.7098 21.838 78.2566 21.6156C77.015 21.4203 76.2689 20.4873 76.1019 18.9576C76.0518 18.5019 76.0295 18.0409 76.0295 17.5852C76.0221 15.3246 76.0246 13.0591 76.027 10.7953V10.7941V10.7929V10.7917V10.7905V10.7892V10.788V10.7868C76.0283 9.65832 76.0295 8.53024 76.0295 7.40336V6.89345H79.4147V7.48472C79.4147 8.29964 79.4141 9.11423 79.4134 9.92864L79.4134 9.94148V9.94199V9.9425V9.94301V9.94352V9.94402V9.94453V9.94503C79.4113 12.3995 79.4092 14.8525 79.4259 17.3085C79.4259 17.7751 79.476 18.2578 79.5595 18.7243C79.6542 19.2017 80.0105 19.3753 80.4893 19.3427C81.2633 19.2831 81.7978 18.7243 81.7978 17.9758V7.54439C81.7699 7.33284 81.7699 7.13755 81.7699 6.9043ZM62.0933 6.89345H58.7303L58.7248 7.28402C58.7248 10.8045 58.7248 14.3413 58.7359 17.8618C58.7359 18.3012 58.7804 18.7352 58.8417 19.1746C59.0644 20.5795 59.7938 21.4366 60.9853 21.6102C62.4719 21.8326 63.6913 21.3769 64.5598 20.1347C64.6545 19.9883 64.7491 19.8472 64.9162 19.6031C64.973 19.9275 65.0237 20.2204 65.0713 20.4947L65.0714 20.4953L65.0717 20.4968L65.0724 20.5008C65.1271 20.816 65.1775 21.1069 65.228 21.3932H67.8281V6.91515H64.4819V7.56609V17.9432C64.4763 18.6972 64.0142 19.2126 63.2514 19.3156C62.7002 19.3861 62.3773 19.2126 62.2492 18.6755C62.149 18.2199 62.1044 17.7371 62.1044 17.2706C62.0877 14.8339 62.0898 12.3942 62.0919 9.95142C62.0926 9.13676 62.0933 8.32176 62.0933 7.50642V6.89345ZM57.0043 14.6288C56.9954 15.0194 56.9722 15.4099 56.9491 15.8005C56.9433 15.8981 56.9375 15.9958 56.9319 16.0934C56.9209 16.2195 56.9104 16.3502 56.8996 16.4843C56.7848 17.9083 56.6381 19.7277 55.5288 20.7043C54.7549 21.3769 53.775 21.621 52.7616 21.6536C52.3107 21.6644 51.8541 21.6644 51.4031 21.6048C49.2706 21.2901 48.2796 20.3734 47.9232 18.0897C47.5168 15.4534 47.4834 12.7736 47.9678 10.1373C48.4689 7.40878 50.1949 6.44321 52.8786 6.62222C55.3841 6.79581 56.5032 8.39604 56.7983 10.6743C56.9598 11.9817 57.0377 13.3052 57.0043 14.6288ZM53.6004 13.3342L53.6004 13.3347C53.5986 13.6 53.5968 13.8651 53.5968 14.1298C53.5968 14.9888 53.5628 15.8479 53.5288 16.7052V16.7053V16.7053V16.7053V16.7053L53.5288 16.7054L53.5288 16.7055L53.5288 16.7056L53.5288 16.7057C53.5133 17.0988 53.4977 17.4914 53.4855 17.8835C53.4855 18.1982 53.3741 18.5182 53.246 18.8111C53.0846 19.1909 52.7951 19.4024 52.3552 19.4024C51.9042 19.4024 51.559 19.1854 51.4254 18.7894C51.0786 17.7674 51.1159 16.6679 51.1527 15.5838L51.1527 15.5837C51.1626 15.2926 51.1725 15.0027 51.1748 14.7156C51.186 13.2618 51.1971 11.8026 51.1971 10.3489C51.1971 10.1495 51.2564 9.94534 51.3145 9.74542L51.3252 9.70878C51.5033 9.1392 51.8485 8.84628 52.3385 8.83543C52.8396 8.82458 53.2405 9.11751 53.3741 9.73048C53.491 10.2621 53.5634 10.8045 53.5857 11.3416C53.6095 12.0043 53.605 12.6698 53.6004 13.3342ZM43.0124 11.4012C43.0924 11.0205 43.1711 10.6421 43.2495 10.2654C43.4604 9.252 43.6689 8.25046 43.8921 7.24604C44.0705 6.43231 44.2586 5.61858 44.4467 4.80431L44.4467 4.80428L44.4467 4.80426L44.4468 4.80424L44.4468 4.80415C44.6637 3.86519 44.8809 2.9255 45.0836 1.98425C45.1783 1.55571 45.3565 1.45265 45.774 1.4635C46.4115 1.48664 47.0574 1.48236 47.7217 1.47795C47.9916 1.47616 48.2646 1.47435 48.5412 1.47435C48.2551 2.50005 47.9735 3.48006 47.6967 4.44372L47.6966 4.444L47.6226 4.70194C46.6705 7.9892 45.7184 11.2873 44.7774 14.5854C44.705 14.8404 44.6716 15.117 44.6716 15.3883C44.6642 16.5885 44.6667 17.7864 44.6691 18.9851V18.9852V18.9853V18.9855V18.9856V18.9857V18.9858C44.6704 19.5854 44.6716 20.1852 44.6716 20.7857V21.3715H41.4033C41.3996 21.3173 41.3947 21.263 41.3897 21.2088L41.3897 21.2088C41.3798 21.1003 41.3699 20.9918 41.3699 20.8833C41.3699 20.5577 41.3614 20.2315 41.3529 19.9055C41.3347 19.2104 41.3166 18.5161 41.381 17.8293C41.59 15.7127 41.0141 13.7448 40.4385 11.7779C40.3547 11.4915 40.2709 11.2052 40.1895 10.9184C39.7664 9.42672 39.3405 7.93228 38.9145 6.43785C38.4886 4.94337 38.0626 3.44889 37.6395 1.95713C37.6145 1.87817 37.5983 1.79582 37.5811 1.70815C37.5675 1.63923 37.5533 1.56703 37.5337 1.49062H40.8688C41.5704 4.78331 42.2775 8.076 43.0124 11.4012ZM101.324 15.1821H106.959C106.959 14.5106 106.965 13.8575 106.97 13.2132V13.212V13.2108V13.2101V13.2094C106.977 12.455 106.984 11.7127 106.981 10.9673C106.959 10.3651 106.853 9.7576 106.708 9.16633C106.391 7.90784 105.661 6.94769 104.292 6.71444C103.445 6.5734 102.56 6.54086 101.703 6.62222C100.127 6.77411 99.1081 7.68001 98.6404 9.15548C98.5235 9.5135 98.4177 9.86609 98.3564 10.235C98.0112 12.4482 98.0725 14.6776 98.2395 16.8854C98.3008 17.7805 98.5847 18.6755 98.8854 19.5326C99.2083 20.4493 99.9266 21.046 100.89 21.3227C102.193 21.697 103.501 21.697 104.776 21.2088C106.396 20.5958 107.36 18.6104 106.825 17.0644C106.179 17.0377 105.527 17.003 104.866 16.9677L104.866 16.9677L104.866 16.9677C104.587 16.9528 104.307 16.9379 104.024 16.9234L104.019 17.0175L104.019 17.0179L104.019 17.0185C104.005 17.2758 103.994 17.4777 103.974 17.6666C103.952 17.9052 103.919 18.1385 103.869 18.3718C103.713 19.0878 103.323 19.4133 102.655 19.4024C102.014 19.397 101.608 19.0878 101.525 18.3663C101.44 17.6172 101.405 16.8625 101.369 16.0857L101.369 16.0851C101.355 15.7877 101.341 15.487 101.324 15.1821ZM103.757 13.2781C103.757 13.0025 103.758 12.731 103.759 12.4625V12.4624C103.761 11.669 103.763 10.902 103.746 10.1319C103.746 9.88779 103.651 9.63284 103.557 9.39958C103.367 8.94392 102.972 8.81916 102.499 8.81916C102.026 8.81916 101.725 9.05241 101.608 9.4701C101.317 10.4938 101.342 11.5355 101.367 12.5835C101.372 12.8184 101.378 13.0536 101.38 13.289C102.232 13.2781 103.006 13.2781 103.757 13.2781ZM67.0988 4.13237H70.4116L70.4172 21.3715H73.6966V4.11609H76.9872V1.51774H67.0988V4.13237Z" fill="black"/>
</svg>
